<mxfile host="app.diagrams.net" agent="Mozilla/5.0 (Windows NT 10.0; Win64; x64) AppleWebKit/537.36 (KHTML, like Gecko) Chrome/136.0.0.0 Safari/537.36" version="27.0.5">
  <diagram name="Page-1" id="c1x8HeHf93VjXl6Es4rd">
    <mxGraphModel dx="3625" dy="1295" grid="1" gridSize="10" guides="1" tooltips="1" connect="1" arrows="1" fold="1" page="1" pageScale="1" pageWidth="850" pageHeight="1100" math="0" shadow="0">
      <root>
        <mxCell id="0" />
        <mxCell id="1" parent="0" />
        <mxCell id="ruy3D-j27tNiuv_rc0qT-1" value="Orders Management Application" style="shape=umlFrame;whiteSpace=wrap;html=1;pointerEvents=0;width=130;height=60;" vertex="1" parent="1">
          <mxGeometry x="-300" y="210" width="770" height="1160" as="geometry" />
        </mxCell>
        <mxCell id="ruy3D-j27tNiuv_rc0qT-2" value="Setup The Simulation" style="ellipse;whiteSpace=wrap;html=1;" vertex="1" parent="1">
          <mxGeometry x="270" y="260" width="140" height="70" as="geometry" />
        </mxCell>
        <mxCell id="ruy3D-j27tNiuv_rc0qT-3" value="Add Client" style="ellipse;whiteSpace=wrap;html=1;" vertex="1" parent="1">
          <mxGeometry x="-125" y="260" width="140" height="70" as="geometry" />
        </mxCell>
        <mxCell id="ruy3D-j27tNiuv_rc0qT-4" value="EditClient" style="ellipse;whiteSpace=wrap;html=1;" vertex="1" parent="1">
          <mxGeometry x="-130" y="360" width="140" height="70" as="geometry" />
        </mxCell>
        <mxCell id="ruy3D-j27tNiuv_rc0qT-5" value="View Products" style="ellipse;whiteSpace=wrap;html=1;" vertex="1" parent="1">
          <mxGeometry x="-130" y="1040" width="150" height="70" as="geometry" />
        </mxCell>
        <mxCell id="ruy3D-j27tNiuv_rc0qT-6" value="Delete Product" style="ellipse;whiteSpace=wrap;html=1;" vertex="1" parent="1">
          <mxGeometry x="-130" y="920" width="160" height="70" as="geometry" />
        </mxCell>
        <mxCell id="ruy3D-j27tNiuv_rc0qT-7" value="Edit Product" style="ellipse;whiteSpace=wrap;html=1;" vertex="1" parent="1">
          <mxGeometry x="-130" y="790" width="150" height="70" as="geometry" />
        </mxCell>
        <mxCell id="ruy3D-j27tNiuv_rc0qT-8" value="View Clients" style="ellipse;whiteSpace=wrap;html=1;" vertex="1" parent="1">
          <mxGeometry x="-130" y="550" width="140" height="70" as="geometry" />
        </mxCell>
        <mxCell id="ruy3D-j27tNiuv_rc0qT-9" value="Delete Client" style="ellipse;whiteSpace=wrap;html=1;" vertex="1" parent="1">
          <mxGeometry x="-130" y="450" width="140" height="70" as="geometry" />
        </mxCell>
        <mxCell id="ruy3D-j27tNiuv_rc0qT-10" value="User" style="shape=umlActor;verticalLabelPosition=bottom;verticalAlign=top;html=1;" vertex="1" parent="1">
          <mxGeometry x="-710" y="430" width="110" height="240" as="geometry" />
        </mxCell>
        <mxCell id="ruy3D-j27tNiuv_rc0qT-11" value="Add Product" style="ellipse;whiteSpace=wrap;html=1;" vertex="1" parent="1">
          <mxGeometry x="-130" y="670" width="140" height="70" as="geometry" />
        </mxCell>
        <mxCell id="ruy3D-j27tNiuv_rc0qT-13" value="View All Orders" style="ellipse;whiteSpace=wrap;html=1;" vertex="1" parent="1">
          <mxGeometry x="-125" y="1250" width="140" height="70" as="geometry" />
        </mxCell>
        <mxCell id="ruy3D-j27tNiuv_rc0qT-16" value="Place Order" style="ellipse;whiteSpace=wrap;html=1;" vertex="1" parent="1">
          <mxGeometry x="-125" y="1150" width="140" height="70" as="geometry" />
        </mxCell>
        <mxCell id="ruy3D-j27tNiuv_rc0qT-17" value="" style="endArrow=none;html=1;rounded=0;entryX=0;entryY=0.5;entryDx=0;entryDy=0;exitX=1;exitY=0.3333333333333333;exitDx=0;exitDy=0;exitPerimeter=0;" edge="1" parent="1" source="ruy3D-j27tNiuv_rc0qT-10" target="ruy3D-j27tNiuv_rc0qT-3">
          <mxGeometry width="50" height="50" relative="1" as="geometry">
            <mxPoint x="-590" y="530" as="sourcePoint" />
            <mxPoint x="-120" y="205" as="targetPoint" />
          </mxGeometry>
        </mxCell>
        <mxCell id="ruy3D-j27tNiuv_rc0qT-18" value="" style="endArrow=none;html=1;rounded=0;entryX=0;entryY=0.5;entryDx=0;entryDy=0;exitX=1;exitY=0.3333333333333333;exitDx=0;exitDy=0;exitPerimeter=0;" edge="1" parent="1" source="ruy3D-j27tNiuv_rc0qT-10" target="ruy3D-j27tNiuv_rc0qT-4">
          <mxGeometry width="50" height="50" relative="1" as="geometry">
            <mxPoint x="-530" y="560" as="sourcePoint" />
            <mxPoint x="-120" y="305" as="targetPoint" />
          </mxGeometry>
        </mxCell>
        <mxCell id="ruy3D-j27tNiuv_rc0qT-19" value="" style="endArrow=none;html=1;rounded=0;entryX=0;entryY=0.5;entryDx=0;entryDy=0;exitX=1;exitY=0.3333333333333333;exitDx=0;exitDy=0;exitPerimeter=0;" edge="1" parent="1" source="ruy3D-j27tNiuv_rc0qT-10" target="ruy3D-j27tNiuv_rc0qT-9">
          <mxGeometry width="50" height="50" relative="1" as="geometry">
            <mxPoint x="-540" y="550" as="sourcePoint" />
            <mxPoint x="-120" y="405" as="targetPoint" />
          </mxGeometry>
        </mxCell>
        <mxCell id="ruy3D-j27tNiuv_rc0qT-20" value="" style="endArrow=none;html=1;rounded=0;entryX=0;entryY=0.5;entryDx=0;entryDy=0;exitX=1;exitY=0.3333333333333333;exitDx=0;exitDy=0;exitPerimeter=0;" edge="1" parent="1" source="ruy3D-j27tNiuv_rc0qT-10" target="ruy3D-j27tNiuv_rc0qT-8">
          <mxGeometry width="50" height="50" relative="1" as="geometry">
            <mxPoint x="-530" y="580" as="sourcePoint" />
            <mxPoint x="-120" y="495" as="targetPoint" />
          </mxGeometry>
        </mxCell>
        <mxCell id="ruy3D-j27tNiuv_rc0qT-21" value="" style="endArrow=none;html=1;rounded=0;entryX=0;entryY=0.5;entryDx=0;entryDy=0;exitX=1;exitY=0.3333333333333333;exitDx=0;exitDy=0;exitPerimeter=0;" edge="1" parent="1" source="ruy3D-j27tNiuv_rc0qT-10" target="ruy3D-j27tNiuv_rc0qT-11">
          <mxGeometry width="50" height="50" relative="1" as="geometry">
            <mxPoint x="-520" y="590" as="sourcePoint" />
            <mxPoint x="-120" y="595" as="targetPoint" />
          </mxGeometry>
        </mxCell>
        <mxCell id="ruy3D-j27tNiuv_rc0qT-22" value="" style="endArrow=none;html=1;rounded=0;entryX=0;entryY=0.5;entryDx=0;entryDy=0;exitX=1;exitY=0.3333333333333333;exitDx=0;exitDy=0;exitPerimeter=0;" edge="1" parent="1" source="ruy3D-j27tNiuv_rc0qT-10" target="ruy3D-j27tNiuv_rc0qT-7">
          <mxGeometry width="50" height="50" relative="1" as="geometry">
            <mxPoint x="-570" y="560" as="sourcePoint" />
            <mxPoint x="-120" y="715" as="targetPoint" />
          </mxGeometry>
        </mxCell>
        <mxCell id="ruy3D-j27tNiuv_rc0qT-23" value="" style="endArrow=none;html=1;rounded=0;entryX=0;entryY=0.5;entryDx=0;entryDy=0;exitX=1;exitY=0.3333333333333333;exitDx=0;exitDy=0;exitPerimeter=0;" edge="1" parent="1" source="ruy3D-j27tNiuv_rc0qT-10" target="ruy3D-j27tNiuv_rc0qT-6">
          <mxGeometry width="50" height="50" relative="1" as="geometry">
            <mxPoint x="-500" y="610" as="sourcePoint" />
            <mxPoint x="-120" y="835" as="targetPoint" />
          </mxGeometry>
        </mxCell>
        <mxCell id="ruy3D-j27tNiuv_rc0qT-24" value="" style="endArrow=none;html=1;rounded=0;entryX=0;entryY=0.5;entryDx=0;entryDy=0;exitX=1;exitY=0.3333333333333333;exitDx=0;exitDy=0;exitPerimeter=0;" edge="1" parent="1" source="ruy3D-j27tNiuv_rc0qT-10" target="ruy3D-j27tNiuv_rc0qT-5">
          <mxGeometry width="50" height="50" relative="1" as="geometry">
            <mxPoint x="-490" y="620" as="sourcePoint" />
            <mxPoint x="-120" y="965" as="targetPoint" />
          </mxGeometry>
        </mxCell>
        <mxCell id="ruy3D-j27tNiuv_rc0qT-26" value="" style="endArrow=none;html=1;rounded=0;entryX=0;entryY=0.5;entryDx=0;entryDy=0;exitX=1;exitY=0.3333333333333333;exitDx=0;exitDy=0;exitPerimeter=0;" edge="1" parent="1" source="ruy3D-j27tNiuv_rc0qT-10" target="ruy3D-j27tNiuv_rc0qT-13">
          <mxGeometry width="50" height="50" relative="1" as="geometry">
            <mxPoint x="-470" y="640" as="sourcePoint" />
            <mxPoint x="-120" y="1215" as="targetPoint" />
          </mxGeometry>
        </mxCell>
        <mxCell id="ruy3D-j27tNiuv_rc0qT-29" value="" style="endArrow=none;html=1;rounded=0;entryX=0;entryY=0.5;entryDx=0;entryDy=0;exitX=1;exitY=0.3333333333333333;exitDx=0;exitDy=0;exitPerimeter=0;" edge="1" parent="1" source="ruy3D-j27tNiuv_rc0qT-10" target="ruy3D-j27tNiuv_rc0qT-16">
          <mxGeometry width="50" height="50" relative="1" as="geometry">
            <mxPoint x="-440" y="670" as="sourcePoint" />
            <mxPoint x="-120" y="1555" as="targetPoint" />
          </mxGeometry>
        </mxCell>
        <mxCell id="ruy3D-j27tNiuv_rc0qT-30" value="Validate User Input" style="ellipse;whiteSpace=wrap;html=1;" vertex="1" parent="1">
          <mxGeometry x="270" y="360" width="140" height="70" as="geometry" />
        </mxCell>
        <mxCell id="ruy3D-j27tNiuv_rc0qT-31" value="Validate User Input" style="ellipse;whiteSpace=wrap;html=1;" vertex="1" parent="1">
          <mxGeometry x="270" y="450" width="140" height="70" as="geometry" />
        </mxCell>
        <mxCell id="ruy3D-j27tNiuv_rc0qT-33" value="Validate User Input" style="ellipse;whiteSpace=wrap;html=1;" vertex="1" parent="1">
          <mxGeometry x="270" y="670" width="140" height="70" as="geometry" />
        </mxCell>
        <mxCell id="ruy3D-j27tNiuv_rc0qT-34" value="Validate User Input" style="ellipse;whiteSpace=wrap;html=1;" vertex="1" parent="1">
          <mxGeometry x="270" y="790" width="140" height="70" as="geometry" />
        </mxCell>
        <mxCell id="ruy3D-j27tNiuv_rc0qT-35" value="Validate User Input" style="ellipse;whiteSpace=wrap;html=1;" vertex="1" parent="1">
          <mxGeometry x="270" y="920" width="140" height="70" as="geometry" />
        </mxCell>
        <mxCell id="ruy3D-j27tNiuv_rc0qT-38" value="" style="html=1;verticalAlign=bottom;endArrow=open;dashed=1;endSize=8;curved=0;rounded=0;entryX=0;entryY=0.5;entryDx=0;entryDy=0;exitX=1;exitY=0.5;exitDx=0;exitDy=0;" edge="1" parent="1" source="ruy3D-j27tNiuv_rc0qT-16" target="ruy3D-j27tNiuv_rc0qT-65">
          <mxGeometry relative="1" as="geometry">
            <mxPoint x="280" y="1085" as="sourcePoint" />
            <mxPoint x="270.0000000000059" y="1285" as="targetPoint" />
          </mxGeometry>
        </mxCell>
        <mxCell id="ruy3D-j27tNiuv_rc0qT-39" value="Include" style="text;html=1;align=center;verticalAlign=middle;resizable=0;points=[];autosize=1;strokeColor=none;fillColor=none;" vertex="1" parent="1">
          <mxGeometry x="80" y="1160" width="60" height="30" as="geometry" />
        </mxCell>
        <mxCell id="ruy3D-j27tNiuv_rc0qT-51" value="" style="html=1;verticalAlign=bottom;endArrow=open;dashed=1;endSize=8;curved=0;rounded=0;entryX=0;entryY=0.5;entryDx=0;entryDy=0;exitX=1;exitY=0.5;exitDx=0;exitDy=0;" edge="1" parent="1" source="ruy3D-j27tNiuv_rc0qT-6" target="ruy3D-j27tNiuv_rc0qT-35">
          <mxGeometry relative="1" as="geometry">
            <mxPoint x="40" y="970" as="sourcePoint" />
            <mxPoint x="290" y="970" as="targetPoint" />
          </mxGeometry>
        </mxCell>
        <mxCell id="ruy3D-j27tNiuv_rc0qT-52" value="" style="html=1;verticalAlign=bottom;endArrow=open;dashed=1;endSize=8;curved=0;rounded=0;entryX=0;entryY=0.5;entryDx=0;entryDy=0;exitX=1;exitY=0.5;exitDx=0;exitDy=0;" edge="1" parent="1" source="ruy3D-j27tNiuv_rc0qT-7" target="ruy3D-j27tNiuv_rc0qT-34">
          <mxGeometry relative="1" as="geometry">
            <mxPoint x="30" y="859.05" as="sourcePoint" />
            <mxPoint x="270" y="859.05" as="targetPoint" />
          </mxGeometry>
        </mxCell>
        <mxCell id="ruy3D-j27tNiuv_rc0qT-53" value="Include" style="text;html=1;align=center;verticalAlign=middle;resizable=0;points=[];autosize=1;strokeColor=none;fillColor=none;" vertex="1" parent="1">
          <mxGeometry x="90" y="920" width="60" height="30" as="geometry" />
        </mxCell>
        <mxCell id="ruy3D-j27tNiuv_rc0qT-54" value="Include" style="text;html=1;align=center;verticalAlign=middle;resizable=0;points=[];autosize=1;strokeColor=none;fillColor=none;" vertex="1" parent="1">
          <mxGeometry x="90" y="790" width="60" height="30" as="geometry" />
        </mxCell>
        <mxCell id="ruy3D-j27tNiuv_rc0qT-55" value="" style="html=1;verticalAlign=bottom;endArrow=open;dashed=1;endSize=8;curved=0;rounded=0;entryX=0;entryY=0.5;entryDx=0;entryDy=0;exitX=1;exitY=0.5;exitDx=0;exitDy=0;" edge="1" parent="1" source="ruy3D-j27tNiuv_rc0qT-11" target="ruy3D-j27tNiuv_rc0qT-33">
          <mxGeometry relative="1" as="geometry">
            <mxPoint x="5" y="640" as="sourcePoint" />
            <mxPoint x="265.0000000000032" y="640" as="targetPoint" />
          </mxGeometry>
        </mxCell>
        <mxCell id="ruy3D-j27tNiuv_rc0qT-56" value="Include" style="text;html=1;align=center;verticalAlign=middle;resizable=0;points=[];autosize=1;strokeColor=none;fillColor=none;" vertex="1" parent="1">
          <mxGeometry x="90" y="670" width="60" height="30" as="geometry" />
        </mxCell>
        <mxCell id="ruy3D-j27tNiuv_rc0qT-59" value="" style="html=1;verticalAlign=bottom;endArrow=open;dashed=1;endSize=8;curved=0;rounded=0;entryX=0;entryY=0.5;entryDx=0;entryDy=0;exitX=1;exitY=0.5;exitDx=0;exitDy=0;" edge="1" parent="1" source="ruy3D-j27tNiuv_rc0qT-9" target="ruy3D-j27tNiuv_rc0qT-31">
          <mxGeometry relative="1" as="geometry">
            <mxPoint x="20" y="595" as="sourcePoint" />
            <mxPoint x="280" y="595" as="targetPoint" />
          </mxGeometry>
        </mxCell>
        <mxCell id="ruy3D-j27tNiuv_rc0qT-60" value="Include" style="text;html=1;align=center;verticalAlign=middle;resizable=0;points=[];autosize=1;strokeColor=none;fillColor=none;" vertex="1" parent="1">
          <mxGeometry x="90" y="450" width="60" height="30" as="geometry" />
        </mxCell>
        <mxCell id="ruy3D-j27tNiuv_rc0qT-61" value="" style="html=1;verticalAlign=bottom;endArrow=open;dashed=1;endSize=8;curved=0;rounded=0;entryX=0;entryY=0.5;entryDx=0;entryDy=0;exitX=1;exitY=0.5;exitDx=0;exitDy=0;" edge="1" parent="1" source="ruy3D-j27tNiuv_rc0qT-4" target="ruy3D-j27tNiuv_rc0qT-30">
          <mxGeometry relative="1" as="geometry">
            <mxPoint x="20" y="495" as="sourcePoint" />
            <mxPoint x="280" y="495" as="targetPoint" />
          </mxGeometry>
        </mxCell>
        <mxCell id="ruy3D-j27tNiuv_rc0qT-62" value="Include" style="text;html=1;align=center;verticalAlign=middle;resizable=0;points=[];autosize=1;strokeColor=none;fillColor=none;" vertex="1" parent="1">
          <mxGeometry x="90" y="370" width="60" height="30" as="geometry" />
        </mxCell>
        <mxCell id="ruy3D-j27tNiuv_rc0qT-63" value="" style="html=1;verticalAlign=bottom;endArrow=open;dashed=1;endSize=8;curved=0;rounded=0;entryX=0;entryY=0.5;entryDx=0;entryDy=0;exitX=1;exitY=0.5;exitDx=0;exitDy=0;" edge="1" parent="1" source="ruy3D-j27tNiuv_rc0qT-3" target="ruy3D-j27tNiuv_rc0qT-2">
          <mxGeometry relative="1" as="geometry">
            <mxPoint x="20" y="405" as="sourcePoint" />
            <mxPoint x="280" y="405" as="targetPoint" />
          </mxGeometry>
        </mxCell>
        <mxCell id="ruy3D-j27tNiuv_rc0qT-64" value="Include" style="text;html=1;align=center;verticalAlign=middle;resizable=0;points=[];autosize=1;strokeColor=none;fillColor=none;" vertex="1" parent="1">
          <mxGeometry x="90" y="260" width="60" height="30" as="geometry" />
        </mxCell>
        <mxCell id="ruy3D-j27tNiuv_rc0qT-65" value="Validate User Input" style="ellipse;whiteSpace=wrap;html=1;" vertex="1" parent="1">
          <mxGeometry x="270" y="1150" width="140" height="70" as="geometry" />
        </mxCell>
      </root>
    </mxGraphModel>
  </diagram>
</mxfile>
